<?xml version="1.0" encoding="utf-8"?>
<!-- Svg Vector Icons : http://www.sfont.cn -->
<!DOCTYPE svg PUBLIC "-//W3C//DTD SVG 1.1//EN" "http://www.w3.org/Graphics/SVG/1.1/DTD/svg11.dtd">
<svg version="1.1" xmlns="http://www.w3.org/2000/svg" xmlns:xlink="http://www.w3.org/1999/xlink" x="0px" y="0px" viewBox="0 0 1000 1000" enable-background="new 0 0 1000 1000" xml:space="preserve">
<metadata> Svg Vector Icons : http://www.sfont.cn </metadata>
<g><path d="M904.8,914.6h-42.6l0,0H137.8l0,0H95.2c-47.1,0-85.2-37.1-85.2-82.9V271.9c0-45.8,38.2-82.9,85.2-82.9h42.6l0,0l0,0h138.5l53.3-82.9c5.9-8.7,28.8-20.7,42.6-20.7h255.6c13.6,0,37.2,11.4,42.6,20.7l53.3,82.9h138.5h42.6c47.1,0,85.2,37.1,85.2,82.9v559.7C990,877.5,951.8,914.6,904.8,914.6L904.8,914.6z M500,271.9c-153,0-277,120.7-277,269.5C223,690.3,347,811,500,811c153,0,276.9-120.7,277-269.5l0,0C776.9,392.6,653,271.9,500,271.9L500,271.9z M500,728c-105.9,0-191.7-83.5-191.7-186.6c0-103,85.8-186.6,191.7-186.6c105.9,0,191.7,83.5,191.7,186.6C691.7,644.5,605.9,728,500,728L500,728z"/></g>
</svg>