<?xml version="1.0" encoding="utf-8"?>
<!-- Svg Vector Icons : http://www.sfont.cn -->
<!DOCTYPE svg PUBLIC "-//W3C//DTD SVG 1.1//EN" "http://www.w3.org/Graphics/SVG/1.1/DTD/svg11.dtd">
<svg version="1.1" xmlns="http://www.w3.org/2000/svg" xmlns:xlink="http://www.w3.org/1999/xlink" x="0px" y="0px" viewBox="0 0 1000 1000" enable-background="new 0 0 1000 1000" xml:space="preserve">
<metadata> Svg Vector Icons : http://www.sfont.cn </metadata>
<g><g transform="translate(0.000000,511.000000) scale(0.100000,-0.100000)"><path d="M4564.1,5080.3c-1169.6-150.1-2208.2-888.5-2725.1-1939c-493.1-995.7-502.6-2103.4-28.6-3099.1c474-993.3,1367.3-1700.8,2455.9-1943.8c216.8-47.6,314.4-54.8,738.4-54.8c424,0,521.7,7.1,738.4,54.8c452.6,102.4,850.4,271.6,1231.5,526.4C8034.8-665.3,8647,597.2,8532.7,1843c-95.3,1043.3-597.9,1950.9-1419.7,2565.5C6403.1,4939.7,5447.9,5192.2,4564.1,5080.3z M5614.6,3572.4c157.2-73.8,285.8-202.5,364.5-369.2l61.9-133.4l7.1-755.1l9.5-757.5h490.7c421.6,0,505-7.1,576.5-42.9c112-54.8,123.9-150.1,31-273.9c-35.7-47.6-428.8-376.4-874.2-731.3c-914.7-726.5-945.7-745.6-1276.8-745.6c-331.1,0-362.1,19.1-1276.8,745.6c-445.4,354.9-838.5,683.7-874.2,731.3c-92.9,123.9-81,219.1,31,273.9c71.5,35.7,154.8,42.9,576.5,42.9h490.7l9.5,757.5c7.1,719.4,9.5,759.9,59.6,869.5c73.8,162,133.4,235.8,242.9,312.1c171.5,119.1,238.2,131,752.8,131C5469.3,3629.6,5500.3,3627.2,5614.6,3572.4z"/><path d="M107.2-2478.1c-7.1-19-9.5-443.1-4.7-945.7c7.1-895.7,7.1-917.1,61.9-1033.8c69.1-150.1,197.7-283.5,350.2-364.5l119.1-64.3h4371.1h4371.1l119.1,64.3c154.8,81,302.5,240.6,359.7,390.7c42.9,107.2,45.3,188.2,45.3,1045.7v929l-612.2,7.1l-614.6,4.8v-619.3v-619.3H5004.8H1336.4v619.3v619.3H729C231.1-2444.7,116.8-2451.9,107.2-2478.1z"/></g></g>
</svg>