<?xml version="1.0" encoding="utf-8"?>
<!-- Svg Vector Icons : http://www.sfont.cn -->
<!DOCTYPE svg PUBLIC "-//W3C//DTD SVG 1.1//EN" "http://www.w3.org/Graphics/SVG/1.1/DTD/svg11.dtd">
<svg version="1.1" xmlns="http://www.w3.org/2000/svg" xmlns:xlink="http://www.w3.org/1999/xlink" x="0px" y="0px" viewBox="0 0 1000 1000" enable-background="new 0 0 1000 1000" xml:space="preserve">
<metadata> Svg Vector Icons : http://www.sfont.cn </metadata>
<g><path d="M115,500c0-212.6,172.4-385,385-385c212.6,0,385,172.4,385,385c0,212.6-172.4,385-385,385C287.4,885,115,712.6,115,500z M10,500c0,270.6,219.4,490,490,490s490-219.4,490-490S770.6,10,500,10S10,229.4,10,500z M395,500c0-58,47-105,105-105c58,0,105,47,105,105s-47,105-105,105C442,605,395,558,395,500z M325,500c0,96.7,78.3,175,175,175c96.7,0,175-78.3,175-175s-78.3-175-175-175C403.3,325,325,403.3,325,500z M430,500c0,38.7,31.3,70,70,70c38.7,0,70-31.3,70-70s-31.3-70-70-70C461.3,430,430,461.3,430,500z M196.6,657.3c32.9,62.2,84,113.2,146.1,146.1l15.6-31.3c-55.4-29.5-100.9-75-130.4-130.4L196.6,657.3z M259.2,626c26.1,48.6,66.2,88.7,114.8,114.8l15.6-31.3c-41.9-22.7-76.4-57.2-99.1-99.1L259.2,626z M809.6,336.5c-32.9-62.2-84-113.2-146.1-146.1l-15.6,31.3c55.4,29.5,100.9,75,130.4,130.4L809.6,336.5z M746.9,367.9c-26.1-48.6-66.2-88.7-114.8-114.8l-15.6,31.3c41.9,22.7,76.4,57.2,99,99L746.9,367.9z"/></g>
</svg>