<?xml version="1.0" encoding="utf-8"?>
<!-- Svg Vector Icons : http://www.sfont.cn -->
<!DOCTYPE svg PUBLIC "-//W3C//DTD SVG 1.1//EN" "http://www.w3.org/Graphics/SVG/1.1/DTD/svg11.dtd">
<svg version="1.1" xmlns="http://www.w3.org/2000/svg" xmlns:xlink="http://www.w3.org/1999/xlink" x="0px" y="0px" viewBox="0 0 1000 1000" enable-background="new 0 0 1000 1000" xml:space="preserve">
<metadata> Svg Vector Icons : http://www.sfont.cn </metadata>
<g><path d="M644.8,515.2c29.3,12,61.2,18.7,94.8,18.7c138.3,0,250.4-112.1,250.4-250.4c0-14.4-1.5-28.4-3.8-42.2L808.6,431.5L640.9,401l-57.5-160.4L774.7,35.9c-11.5-1.7-23.1-2.8-35.1-2.8c-138.3,0-250.4,112.1-250.4,250.4c0,35.6,7.5,69.3,20.9,99.9C432.8,519.6,317,633.3,271.4,675.3c-14.1-4.3-29.1-6.6-44.6-6.6c-85.4,0-154.6,69.2-154.6,154.5c0,85.4,69.2,154.6,154.6,154.6c85.4,0,154.6-69.2,154.6-154.6c0-20.6-4.1-40.2-11.4-58.2C404.4,719.6,497.7,607.5,644.8,515.2 M226.9,905.5c-45.4,0-82.3-36.8-82.3-82.2c0-45.4,36.8-82.2,82.3-82.2c45.4,0,82.2,36.8,82.2,82.2C309.1,868.7,272.3,905.5,226.9,905.5 M241.7,321.2l146.4,150.2l70.2-70.2L311.9,251l35.1-35.1L150.4,19.2L10,159.7l196.6,196.6L241.7,321.2z M697.4,548.2c0,0-120.5,32.8-203.2,176.8C490.9,716.6,716,951.7,716,951.7c38.7,38.8,101.6,38.8,140.5,0l56.2-56.2c38.7-38.8,38.7-101.6,0-140.4L697.4,548.2z M794.4,913c-9.7,9.7-25.5,9.7-35.2,0L578.6,732.4c-9.8-9.7-9.8-25.5,0-35.3c9.7-9.7,25.5-9.7,35.3,0l180.5,180.5C804.2,887.4,804.2,903.2,794.4,913 M873.9,833.5c-9.7,9.7-25.5,9.7-35.3,0L658,653c-9.7-9.7-9.7-25.5,0-35.3c9.8-9.7,25.5-9.7,35.3,0l180.6,180.5C883.6,807.9,883.6,823.8,873.9,833.5"/></g>
</svg>